<?xml version="1.0" encoding="utf-8"?>
<?xml-stylesheet type="text/xsl" href="rss1.xsl"?>
<rss version="2.0" xmlns:atom="http://www.w3.org/2005/Atom" xmlns:content="http://purl.org/rss/1.0/modules/content/" xmlns:dc="http://purl.org/dc/elements/1.1/" xmlns:media="http://search.yahoo.com/mrss/">
<channel>
 <title>Getty</title>
 <link>http://www.gettyimg.com/</link>
 <atom:link href="http://www.gettyimg.com/" rel="self" type="application/rss+xml" />

 
                <item>
                <title><![CDATA[【HD Live Performances】WEB-RiP - Céline Dion - My Heart Will Go On (40th Annual GRAMMY Awards, 1998)]]></title>
                <link><![CDATA[https://sharemania.us/threads/c%C3%A9line-dion-my-heart-will-go-on-40th-annual-grammy-awards-1998.235738/]]></link>
                <description><![CDATA[<article>
<blockquote class="messageText SelectQuoteContainer ugc baseHtml">
On February 25, 1998, Céline Dion took part of the 40th Annual GRAMMY Awards. Céline &amp; Barbra Streisand was nominated for <b>Best Pop Collaboration with Vocals.</b> Céline and Barbra was supposed to perform "Tell Him"-their GRAMMY nominated song however since Barbra had a flu during the rehearsal week and the night of the ceremony, Céline then performed "My Heart Will Go On" at the GRAMMY stage.<br>
<br>
In 1999, the song would won two GRAMMYs including the <b>Best Female Pop Vocal Performance </b>and the coveted golden gramophone for the <b>Record of the Year.<br>
<br>
My Heart Will Go On (40th Annual GRAMMY Awards)<br>
<img src="https://i.imgur.com/ylFVbzd.jpg" class="bbCodeImage LbImage" alt="[​IMG]" data-url="https://i.imgur.com/ylFVbzd.jpg" style=""> </b><br>
<div style="text-align: center"><b><br>
<span style="font-family: 'Courier New'">
<div class="ToggleTriggerAnchor bbCodeSpoilerContainer">
<button type="button" class="button bbCodeSpoilerButton ToggleTrigger Tooltip JsOnly" data-target="> .SpoilerTarget"><span>Spoiler: <span class="SpoilerTitle">MediaInfo</span></span></button>
<div class="SpoilerTarget bbCodeSpoilerText">Format : MPEG-4<br>
Format profile : Base Media<br>
Codec ID : isom (isom/iso2/avc1/mp41)<br>
File size : 280 MiB<br>
Duration : 4 min 49 s<br>
Overall bit rate mode : Variable<br>
Overall bit rate : 8 111 kb/s<br>
Writing application : Lavf59.10.100<br>
Video<br>
ID : 1<br>
Format : AVC<br>
Format/Info : Advanced Video Codec<br>
Format profile : High@L4<br>
Format settings, CABAC : Yes<br>
Format settings, RefFrames : 3 frames<br>
Codec ID : avc1<br>
Codec ID/Info : Advanced Video Coding<br>
Duration : 4 min 49 s<br>
Source duration : 4 min 49 s<br>
Bit rate mode : Constant<br>
Bit rate : 7 994 kb/s<br>
Width : 1 920 pixels<br>
Height : 1 080 pixels<br>
Display aspect ratio : 16:9<br>
Frame rate mode : Constant<br>
Frame rate : 30.000 FPS<br>
Color space : YUV<br>
Chroma subsampling : 4:2:0<br>
Bit depth : 8 bits<br>
Scan type : Progressive<br>
Bits/(Pixel*Frame) : 0.129<br>
Stream size : 264 MiB (95%)<br>
Source stream size : 276 MiB (99%)<br>
Color range : Limited<br>
Color primaries : BT.709<br>
Transfer characteristics : BT.709<br>
Matrix coefficients : BT.709<br>
mdhd_Duration : 289167<br>
Audio<br>
ID : 2<br>
Format : AAC<br>
Format/Info : Advanced Audio Codec<br>
Format profile : LC<br>
Codec ID : 40<br>
Duration : 4 min 49 s<br>
Bit rate mode : Variable<br>
Bit rate : 109 kb/s<br>
Maximum bit rate : 112 kb/s / 112 kb/s<br>
Channel(s) : 2 channels<br>
Channel positions : Front: L R<br>
Sampling rate : 48.0 kHz<br>
Frame rate : 46.875 FPS (1024 SPF)<br>
Compression mode : Lossy<br>
Stream size : 3.77 MiB (1%)<br>
Language : English<br>
Default : Yes<br>
Alternate group : 1</div>
</div></span></b><br>
<span style="font-family: 'Courier New'"><br>
<img src="https://i.imgur.com/SgxkYDa.png" class="bbCodeImage LbImage" alt="[​IMG]" data-url="https://i.imgur.com/SgxkYDa.png" style=""> <br>
</span><br>
<div class="bbCodeBlock bbCodeVfcHH HiddenContent">
<div class="attribution type">Hidden Content:</div>
<blockquote>You must reply before you can see the hidden data contained here.</blockquote>
</div></div>
<div class="messageTextEndMarker">&nbsp;</div>
</blockquote>
</article>]]></description>
                <author><![CDATA[RalphArf]]></author>
                </item>

                </channel></rss>